<mxfile host="Electron" agent="Mozilla/5.0 (Windows NT 10.0; Win64; x64) AppleWebKit/537.36 (KHTML, like Gecko) draw.io/26.0.7 Chrome/128.0.6613.186 Electron/32.2.5 Safari/537.36" version="26.0.7">
  <diagram name="Page-1" id="Y72HiE1PoyJK8s0tHS_5">
    <mxGraphModel dx="2524" dy="1936" grid="1" gridSize="10" guides="1" tooltips="1" connect="1" arrows="1" fold="1" page="1" pageScale="1" pageWidth="850" pageHeight="1100" math="0" shadow="0">
      <root>
        <mxCell id="0" />
        <mxCell id="1" parent="0" />
        <mxCell id="FpyPd4UQ5ratj1tkc4zF-1" value="" style="swimlane;startSize=0;" vertex="1" parent="1">
          <mxGeometry x="-150" y="-110" width="1060" height="860" as="geometry" />
        </mxCell>
        <mxCell id="FpyPd4UQ5ratj1tkc4zF-13" value="" style="edgeStyle=orthogonalEdgeStyle;rounded=0;orthogonalLoop=1;jettySize=auto;html=1;" edge="1" parent="FpyPd4UQ5ratj1tkc4zF-1" source="FpyPd4UQ5ratj1tkc4zF-11" target="FpyPd4UQ5ratj1tkc4zF-12">
          <mxGeometry relative="1" as="geometry" />
        </mxCell>
        <mxCell id="FpyPd4UQ5ratj1tkc4zF-11" value="login" style="ellipse;whiteSpace=wrap;html=1;" vertex="1" parent="FpyPd4UQ5ratj1tkc4zF-1">
          <mxGeometry x="570" y="80" width="140" height="70" as="geometry" />
        </mxCell>
        <mxCell id="FpyPd4UQ5ratj1tkc4zF-15" value="" style="edgeStyle=orthogonalEdgeStyle;rounded=0;orthogonalLoop=1;jettySize=auto;html=1;" edge="1" parent="FpyPd4UQ5ratj1tkc4zF-1" source="FpyPd4UQ5ratj1tkc4zF-12" target="FpyPd4UQ5ratj1tkc4zF-14">
          <mxGeometry relative="1" as="geometry" />
        </mxCell>
        <mxCell id="FpyPd4UQ5ratj1tkc4zF-12" value="view catalogue" style="ellipse;whiteSpace=wrap;html=1;" vertex="1" parent="FpyPd4UQ5ratj1tkc4zF-1">
          <mxGeometry x="570" y="180" width="140" height="70" as="geometry" />
        </mxCell>
        <mxCell id="FpyPd4UQ5ratj1tkc4zF-17" value="" style="edgeStyle=orthogonalEdgeStyle;rounded=0;orthogonalLoop=1;jettySize=auto;html=1;" edge="1" parent="FpyPd4UQ5ratj1tkc4zF-1" source="FpyPd4UQ5ratj1tkc4zF-14" target="FpyPd4UQ5ratj1tkc4zF-16">
          <mxGeometry relative="1" as="geometry" />
        </mxCell>
        <mxCell id="FpyPd4UQ5ratj1tkc4zF-14" value="add item to cart" style="ellipse;whiteSpace=wrap;html=1;" vertex="1" parent="FpyPd4UQ5ratj1tkc4zF-1">
          <mxGeometry x="570" y="280" width="140" height="70" as="geometry" />
        </mxCell>
        <mxCell id="FpyPd4UQ5ratj1tkc4zF-19" value="" style="edgeStyle=orthogonalEdgeStyle;rounded=0;orthogonalLoop=1;jettySize=auto;html=1;" edge="1" parent="FpyPd4UQ5ratj1tkc4zF-1" source="FpyPd4UQ5ratj1tkc4zF-16" target="FpyPd4UQ5ratj1tkc4zF-18">
          <mxGeometry relative="1" as="geometry" />
        </mxCell>
        <mxCell id="FpyPd4UQ5ratj1tkc4zF-16" value="go to cart" style="ellipse;whiteSpace=wrap;html=1;" vertex="1" parent="FpyPd4UQ5ratj1tkc4zF-1">
          <mxGeometry x="570" y="380" width="140" height="70" as="geometry" />
        </mxCell>
        <mxCell id="FpyPd4UQ5ratj1tkc4zF-21" value="" style="edgeStyle=orthogonalEdgeStyle;rounded=0;orthogonalLoop=1;jettySize=auto;html=1;" edge="1" parent="FpyPd4UQ5ratj1tkc4zF-1" source="FpyPd4UQ5ratj1tkc4zF-18" target="FpyPd4UQ5ratj1tkc4zF-20">
          <mxGeometry relative="1" as="geometry" />
        </mxCell>
        <mxCell id="FpyPd4UQ5ratj1tkc4zF-18" value="enter payment information" style="ellipse;whiteSpace=wrap;html=1;" vertex="1" parent="FpyPd4UQ5ratj1tkc4zF-1">
          <mxGeometry x="570" y="470" width="140" height="70" as="geometry" />
        </mxCell>
        <mxCell id="FpyPd4UQ5ratj1tkc4zF-20" value="enter shipping information" style="ellipse;whiteSpace=wrap;html=1;" vertex="1" parent="FpyPd4UQ5ratj1tkc4zF-1">
          <mxGeometry x="570" y="565" width="140" height="70" as="geometry" />
        </mxCell>
        <mxCell id="FpyPd4UQ5ratj1tkc4zF-24" value="Checkout" style="ellipse;whiteSpace=wrap;html=1;" vertex="1" parent="FpyPd4UQ5ratj1tkc4zF-1">
          <mxGeometry x="570" y="660" width="140" height="70" as="geometry" />
        </mxCell>
        <mxCell id="FpyPd4UQ5ratj1tkc4zF-26" value="Verify password" style="ellipse;whiteSpace=wrap;html=1;" vertex="1" parent="FpyPd4UQ5ratj1tkc4zF-1">
          <mxGeometry x="790" y="100" width="140" height="70" as="geometry" />
        </mxCell>
        <mxCell id="FpyPd4UQ5ratj1tkc4zF-27" value="Display login error" style="ellipse;whiteSpace=wrap;html=1;" vertex="1" parent="FpyPd4UQ5ratj1tkc4zF-1">
          <mxGeometry x="760" y="10" width="140" height="70" as="geometry" />
        </mxCell>
        <mxCell id="FpyPd4UQ5ratj1tkc4zF-28" value="Verify funds" style="ellipse;whiteSpace=wrap;html=1;" vertex="1" parent="FpyPd4UQ5ratj1tkc4zF-1">
          <mxGeometry x="790" y="660" width="140" height="70" as="geometry" />
        </mxCell>
        <mxCell id="FpyPd4UQ5ratj1tkc4zF-29" value="verify payment format" style="ellipse;whiteSpace=wrap;html=1;" vertex="1" parent="FpyPd4UQ5ratj1tkc4zF-1">
          <mxGeometry x="790" y="480" width="140" height="70" as="geometry" />
        </mxCell>
        <mxCell id="FpyPd4UQ5ratj1tkc4zF-23" value="" style="edgeStyle=orthogonalEdgeStyle;rounded=0;orthogonalLoop=1;jettySize=auto;html=1;" edge="1" parent="FpyPd4UQ5ratj1tkc4zF-1" source="FpyPd4UQ5ratj1tkc4zF-20">
          <mxGeometry relative="1" as="geometry">
            <mxPoint x="640" y="660" as="targetPoint" />
          </mxGeometry>
        </mxCell>
        <mxCell id="FpyPd4UQ5ratj1tkc4zF-2" value="Online Shopping System" style="text;html=1;align=center;verticalAlign=middle;resizable=0;points=[];autosize=1;strokeColor=none;fillColor=none;" vertex="1" parent="FpyPd4UQ5ratj1tkc4zF-1">
          <mxGeometry x="390" y="10" width="160" height="30" as="geometry" />
        </mxCell>
        <mxCell id="FpyPd4UQ5ratj1tkc4zF-39" value="" style="edgeStyle=orthogonalEdgeStyle;rounded=0;orthogonalLoop=1;jettySize=auto;html=1;" edge="1" parent="FpyPd4UQ5ratj1tkc4zF-1" source="FpyPd4UQ5ratj1tkc4zF-30" target="FpyPd4UQ5ratj1tkc4zF-38">
          <mxGeometry relative="1" as="geometry" />
        </mxCell>
        <mxCell id="FpyPd4UQ5ratj1tkc4zF-30" value="Create New Account" style="ellipse;whiteSpace=wrap;html=1;" vertex="1" parent="FpyPd4UQ5ratj1tkc4zF-1">
          <mxGeometry x="10" y="460" width="140" height="70" as="geometry" />
        </mxCell>
        <mxCell id="FpyPd4UQ5ratj1tkc4zF-42" value="" style="edgeStyle=orthogonalEdgeStyle;rounded=0;orthogonalLoop=1;jettySize=auto;html=1;" edge="1" parent="FpyPd4UQ5ratj1tkc4zF-1" source="FpyPd4UQ5ratj1tkc4zF-38" target="FpyPd4UQ5ratj1tkc4zF-41">
          <mxGeometry relative="1" as="geometry" />
        </mxCell>
        <mxCell id="FpyPd4UQ5ratj1tkc4zF-38" value="add email" style="ellipse;whiteSpace=wrap;html=1;" vertex="1" parent="FpyPd4UQ5ratj1tkc4zF-1">
          <mxGeometry x="10" y="550" width="140" height="70" as="geometry" />
        </mxCell>
        <mxCell id="FpyPd4UQ5ratj1tkc4zF-41" value="add password" style="ellipse;whiteSpace=wrap;html=1;" vertex="1" parent="FpyPd4UQ5ratj1tkc4zF-1">
          <mxGeometry x="10" y="650" width="140" height="70" as="geometry" />
        </mxCell>
        <mxCell id="FpyPd4UQ5ratj1tkc4zF-46" value="Verify email" style="ellipse;whiteSpace=wrap;html=1;" vertex="1" parent="FpyPd4UQ5ratj1tkc4zF-1">
          <mxGeometry x="260" y="560" width="140" height="70" as="geometry" />
        </mxCell>
        <mxCell id="FpyPd4UQ5ratj1tkc4zF-48" value="Verify password requirement" style="ellipse;whiteSpace=wrap;html=1;" vertex="1" parent="FpyPd4UQ5ratj1tkc4zF-1">
          <mxGeometry x="240" y="635" width="140" height="70" as="geometry" />
        </mxCell>
        <mxCell id="FpyPd4UQ5ratj1tkc4zF-49" value="Display email error" style="ellipse;whiteSpace=wrap;html=1;" vertex="1" parent="FpyPd4UQ5ratj1tkc4zF-1">
          <mxGeometry x="160" y="480" width="140" height="70" as="geometry" />
        </mxCell>
        <mxCell id="FpyPd4UQ5ratj1tkc4zF-50" value="Display Password error" style="ellipse;whiteSpace=wrap;html=1;" vertex="1" parent="FpyPd4UQ5ratj1tkc4zF-1">
          <mxGeometry x="220" y="740" width="140" height="70" as="geometry" />
        </mxCell>
        <mxCell id="FpyPd4UQ5ratj1tkc4zF-59" value="&amp;lt;&amp;lt;Include&amp;gt;&amp;gt;" style="endArrow=open;endSize=12;dashed=1;html=1;rounded=0;" edge="1" parent="FpyPd4UQ5ratj1tkc4zF-1">
          <mxGeometry width="160" relative="1" as="geometry">
            <mxPoint x="150" y="580" as="sourcePoint" />
            <mxPoint x="260.10777527562095" y="583.0585493132116" as="targetPoint" />
          </mxGeometry>
        </mxCell>
        <mxCell id="FpyPd4UQ5ratj1tkc4zF-61" value="&amp;lt;&amp;lt;Extend&amp;gt;&amp;gt;" style="endArrow=open;endSize=12;dashed=1;html=1;rounded=0;exitX=0.036;exitY=0.743;exitDx=0;exitDy=0;exitPerimeter=0;entryX=1;entryY=0;entryDx=0;entryDy=0;" edge="1" parent="FpyPd4UQ5ratj1tkc4zF-1" source="FpyPd4UQ5ratj1tkc4zF-49" target="FpyPd4UQ5ratj1tkc4zF-38">
          <mxGeometry width="160" relative="1" as="geometry">
            <mxPoint x="240" y="510" as="sourcePoint" />
            <mxPoint x="120" y="560" as="targetPoint" />
          </mxGeometry>
        </mxCell>
        <mxCell id="FpyPd4UQ5ratj1tkc4zF-62" value="&amp;lt;&amp;lt;Include&amp;gt;&amp;gt;" style="endArrow=open;endSize=12;dashed=1;html=1;rounded=0;entryX=0;entryY=0.5;entryDx=0;entryDy=0;exitX=0.964;exitY=0.414;exitDx=0;exitDy=0;exitPerimeter=0;" edge="1" parent="FpyPd4UQ5ratj1tkc4zF-1" source="FpyPd4UQ5ratj1tkc4zF-41">
          <mxGeometry width="160" relative="1" as="geometry">
            <mxPoint x="150" y="674" as="sourcePoint" />
            <mxPoint x="260" y="675" as="targetPoint" />
          </mxGeometry>
        </mxCell>
        <mxCell id="FpyPd4UQ5ratj1tkc4zF-63" value="&amp;lt;&amp;lt;Extend&amp;gt;&amp;gt;" style="endArrow=open;endSize=12;dashed=1;html=1;rounded=0;exitX=0;exitY=0.5;exitDx=0;exitDy=0;entryX=0.921;entryY=0.8;entryDx=0;entryDy=0;entryPerimeter=0;" edge="1" parent="FpyPd4UQ5ratj1tkc4zF-1" source="FpyPd4UQ5ratj1tkc4zF-50" target="FpyPd4UQ5ratj1tkc4zF-41">
          <mxGeometry width="160" relative="1" as="geometry">
            <mxPoint x="226" y="772" as="sourcePoint" />
            <mxPoint x="130" y="810" as="targetPoint" />
          </mxGeometry>
        </mxCell>
        <mxCell id="FpyPd4UQ5ratj1tkc4zF-86" value="&amp;lt;&amp;lt;Include&amp;gt;&amp;gt;" style="endArrow=open;endSize=12;dashed=1;html=1;rounded=0;exitX=0.979;exitY=0.6;exitDx=0;exitDy=0;exitPerimeter=0;entryX=0;entryY=0.5;entryDx=0;entryDy=0;" edge="1" parent="FpyPd4UQ5ratj1tkc4zF-1" source="FpyPd4UQ5ratj1tkc4zF-18" target="FpyPd4UQ5ratj1tkc4zF-29">
          <mxGeometry width="160" relative="1" as="geometry">
            <mxPoint x="680" y="513.47" as="sourcePoint" />
            <mxPoint x="790.107775275621" y="516.5285493132117" as="targetPoint" />
          </mxGeometry>
        </mxCell>
        <mxCell id="FpyPd4UQ5ratj1tkc4zF-87" value="&amp;lt;&amp;lt;Include&amp;gt;&amp;gt;" style="endArrow=open;endSize=12;dashed=1;html=1;rounded=0;exitX=1;exitY=0.4;exitDx=0;exitDy=0;exitPerimeter=0;" edge="1" parent="FpyPd4UQ5ratj1tkc4zF-1" source="FpyPd4UQ5ratj1tkc4zF-24" target="FpyPd4UQ5ratj1tkc4zF-28">
          <mxGeometry x="0.0374" y="-1" width="160" relative="1" as="geometry">
            <mxPoint x="707" y="693.5" as="sourcePoint" />
            <mxPoint x="790" y="696.5" as="targetPoint" />
            <mxPoint as="offset" />
          </mxGeometry>
        </mxCell>
        <mxCell id="FpyPd4UQ5ratj1tkc4zF-88" value="Display payment format error" style="ellipse;whiteSpace=wrap;html=1;" vertex="1" parent="FpyPd4UQ5ratj1tkc4zF-1">
          <mxGeometry x="790" y="390" width="140" height="70" as="geometry" />
        </mxCell>
        <mxCell id="FpyPd4UQ5ratj1tkc4zF-89" value="Display funds error" style="ellipse;whiteSpace=wrap;html=1;" vertex="1" parent="FpyPd4UQ5ratj1tkc4zF-1">
          <mxGeometry x="790" y="740" width="140" height="70" as="geometry" />
        </mxCell>
        <mxCell id="FpyPd4UQ5ratj1tkc4zF-90" value="&amp;lt;&amp;lt;Extend&amp;gt;&amp;gt;" style="endArrow=open;endSize=12;dashed=1;html=1;rounded=0;exitX=0.029;exitY=0.414;exitDx=0;exitDy=0;entryX=0.964;entryY=0.686;entryDx=0;entryDy=0;entryPerimeter=0;exitPerimeter=0;" edge="1" parent="FpyPd4UQ5ratj1tkc4zF-1" source="FpyPd4UQ5ratj1tkc4zF-89" target="FpyPd4UQ5ratj1tkc4zF-24">
          <mxGeometry width="160" relative="1" as="geometry">
            <mxPoint x="781" y="774" as="sourcePoint" />
            <mxPoint x="700" y="705" as="targetPoint" />
            <Array as="points">
              <mxPoint x="770" y="760" />
            </Array>
          </mxGeometry>
        </mxCell>
        <mxCell id="FpyPd4UQ5ratj1tkc4zF-91" value="Display out of stock error" style="ellipse;whiteSpace=wrap;html=1;" vertex="1" parent="FpyPd4UQ5ratj1tkc4zF-1">
          <mxGeometry x="820" y="270" width="140" height="70" as="geometry" />
        </mxCell>
        <mxCell id="FpyPd4UQ5ratj1tkc4zF-93" value="&amp;lt;&amp;lt;Extend&amp;gt;&amp;gt;" style="endArrow=open;endSize=12;dashed=1;html=1;rounded=0;exitX=0.064;exitY=0.186;exitDx=0;exitDy=0;entryX=0.986;entryY=0.4;entryDx=0;entryDy=0;entryPerimeter=0;exitPerimeter=0;" edge="1" parent="FpyPd4UQ5ratj1tkc4zF-1" source="FpyPd4UQ5ratj1tkc4zF-88" target="FpyPd4UQ5ratj1tkc4zF-18">
          <mxGeometry width="160" relative="1" as="geometry">
            <mxPoint x="799" y="421" as="sourcePoint" />
            <mxPoint x="710" y="360" as="targetPoint" />
          </mxGeometry>
        </mxCell>
        <mxCell id="FpyPd4UQ5ratj1tkc4zF-94" value="&amp;lt;&amp;lt;Include&amp;gt;&amp;gt;" style="endArrow=open;endSize=12;dashed=1;html=1;rounded=0;exitX=1;exitY=0.4;exitDx=0;exitDy=0;exitPerimeter=0;entryX=0;entryY=0.5;entryDx=0;entryDy=0;" edge="1" parent="FpyPd4UQ5ratj1tkc4zF-1" target="FpyPd4UQ5ratj1tkc4zF-26">
          <mxGeometry x="0.2519" y="-1" width="160" relative="1" as="geometry">
            <mxPoint x="700" y="123" as="sourcePoint" />
            <mxPoint x="780" y="127" as="targetPoint" />
            <mxPoint y="1" as="offset" />
          </mxGeometry>
        </mxCell>
        <mxCell id="FpyPd4UQ5ratj1tkc4zF-96" value="&amp;lt;&amp;lt;Extend&amp;gt;&amp;gt;" style="endArrow=open;endSize=12;dashed=1;html=1;rounded=0;" edge="1" parent="FpyPd4UQ5ratj1tkc4zF-1" target="FpyPd4UQ5ratj1tkc4zF-11">
          <mxGeometry width="160" relative="1" as="geometry">
            <mxPoint x="760" y="50" as="sourcePoint" />
            <mxPoint x="680" y="43.442622950819896" as="targetPoint" />
          </mxGeometry>
        </mxCell>
        <mxCell id="FpyPd4UQ5ratj1tkc4zF-97" value="&amp;lt;&amp;lt;Extend&amp;gt;&amp;gt;" style="endArrow=open;endSize=12;dashed=1;html=1;rounded=0;" edge="1" parent="FpyPd4UQ5ratj1tkc4zF-1" source="FpyPd4UQ5ratj1tkc4zF-91" target="FpyPd4UQ5ratj1tkc4zF-14">
          <mxGeometry width="160" relative="1" as="geometry">
            <mxPoint x="770" y="301" as="sourcePoint" />
            <mxPoint x="697" y="340" as="targetPoint" />
          </mxGeometry>
        </mxCell>
        <mxCell id="FpyPd4UQ5ratj1tkc4zF-9" value="Actor" style="shape=umlActor;verticalLabelPosition=bottom;verticalAlign=top;html=1;" vertex="1" parent="1">
          <mxGeometry x="940" y="55" width="95" height="140" as="geometry" />
        </mxCell>
        <mxCell id="FpyPd4UQ5ratj1tkc4zF-10" value="Shop System Owner&lt;div&gt;&lt;br&gt;&lt;/div&gt;" style="text;html=1;align=center;verticalAlign=middle;resizable=0;points=[];autosize=1;strokeColor=none;fillColor=none;" vertex="1" parent="1">
          <mxGeometry x="922.5" y="115" width="130" height="40" as="geometry" />
        </mxCell>
        <mxCell id="FpyPd4UQ5ratj1tkc4zF-101" style="edgeStyle=orthogonalEdgeStyle;rounded=0;orthogonalLoop=1;jettySize=auto;html=1;exitX=0.25;exitY=0.1;exitDx=0;exitDy=0;exitPerimeter=0;" edge="1" parent="1" source="FpyPd4UQ5ratj1tkc4zF-66" target="FpyPd4UQ5ratj1tkc4zF-99">
          <mxGeometry relative="1" as="geometry">
            <mxPoint x="-460" y="220" as="targetPoint" />
            <Array as="points">
              <mxPoint x="-459" y="-17" />
              <mxPoint x="-459" y="205" />
            </Array>
          </mxGeometry>
        </mxCell>
        <mxCell id="FpyPd4UQ5ratj1tkc4zF-66" value="Actor" style="shape=umlActor;verticalLabelPosition=bottom;verticalAlign=top;html=1;" vertex="1" parent="1">
          <mxGeometry x="-310" y="-30" width="100" height="130" as="geometry" />
        </mxCell>
        <mxCell id="FpyPd4UQ5ratj1tkc4zF-102" style="edgeStyle=orthogonalEdgeStyle;rounded=0;orthogonalLoop=1;jettySize=auto;html=1;exitX=0.25;exitY=0.1;exitDx=0;exitDy=0;exitPerimeter=0;" edge="1" parent="1" source="FpyPd4UQ5ratj1tkc4zF-67" target="FpyPd4UQ5ratj1tkc4zF-99">
          <mxGeometry relative="1" as="geometry">
            <mxPoint x="-460" y="200" as="targetPoint" />
            <Array as="points">
              <mxPoint x="-459" y="413" />
              <mxPoint x="-459" y="205" />
            </Array>
          </mxGeometry>
        </mxCell>
        <mxCell id="FpyPd4UQ5ratj1tkc4zF-67" value="Actor" style="shape=umlActor;verticalLabelPosition=bottom;verticalAlign=top;html=1;" vertex="1" parent="1">
          <mxGeometry x="-290" y="400" width="80" height="130" as="geometry" />
        </mxCell>
        <mxCell id="FpyPd4UQ5ratj1tkc4zF-69" value="Returning Customer" style="text;html=1;align=center;verticalAlign=middle;resizable=0;points=[];autosize=1;strokeColor=none;fillColor=none;" vertex="1" parent="1">
          <mxGeometry x="-315" y="20" width="130" height="30" as="geometry" />
        </mxCell>
        <mxCell id="FpyPd4UQ5ratj1tkc4zF-70" value="New Customer" style="text;html=1;align=center;verticalAlign=middle;resizable=0;points=[];autosize=1;strokeColor=none;fillColor=none;" vertex="1" parent="1">
          <mxGeometry x="-285" y="440" width="100" height="30" as="geometry" />
        </mxCell>
        <mxCell id="FpyPd4UQ5ratj1tkc4zF-73" value="" style="endArrow=none;html=1;rounded=0;" edge="1" parent="1" target="FpyPd4UQ5ratj1tkc4zF-11">
          <mxGeometry width="50" height="50" relative="1" as="geometry">
            <mxPoint x="-220" y="30" as="sourcePoint" />
            <mxPoint x="-170" y="-20" as="targetPoint" />
            <Array as="points">
              <mxPoint x="420" y="10" />
            </Array>
          </mxGeometry>
        </mxCell>
        <mxCell id="FpyPd4UQ5ratj1tkc4zF-74" value="" style="endArrow=none;html=1;rounded=0;entryX=0.007;entryY=0.386;entryDx=0;entryDy=0;entryPerimeter=0;" edge="1" parent="1" target="FpyPd4UQ5ratj1tkc4zF-12">
          <mxGeometry width="50" height="50" relative="1" as="geometry">
            <mxPoint x="-210" y="40" as="sourcePoint" />
            <mxPoint x="431" y="20" as="targetPoint" />
            <Array as="points">
              <mxPoint x="440" y="80" />
            </Array>
          </mxGeometry>
        </mxCell>
        <mxCell id="FpyPd4UQ5ratj1tkc4zF-75" value="" style="endArrow=none;html=1;rounded=0;" edge="1" parent="1" target="FpyPd4UQ5ratj1tkc4zF-14">
          <mxGeometry width="50" height="50" relative="1" as="geometry">
            <mxPoint x="-200" y="50" as="sourcePoint" />
            <mxPoint x="431" y="107" as="targetPoint" />
            <Array as="points" />
          </mxGeometry>
        </mxCell>
        <mxCell id="FpyPd4UQ5ratj1tkc4zF-76" value="" style="endArrow=none;html=1;rounded=0;" edge="1" parent="1" target="FpyPd4UQ5ratj1tkc4zF-16">
          <mxGeometry width="50" height="50" relative="1" as="geometry">
            <mxPoint x="-190" y="60" as="sourcePoint" />
            <mxPoint x="436" y="201" as="targetPoint" />
            <Array as="points" />
          </mxGeometry>
        </mxCell>
        <mxCell id="FpyPd4UQ5ratj1tkc4zF-77" value="" style="endArrow=none;html=1;rounded=0;" edge="1" parent="1" target="FpyPd4UQ5ratj1tkc4zF-18">
          <mxGeometry width="50" height="50" relative="1" as="geometry">
            <mxPoint x="-180" y="70" as="sourcePoint" />
            <mxPoint x="446" y="211" as="targetPoint" />
            <Array as="points" />
          </mxGeometry>
        </mxCell>
        <mxCell id="FpyPd4UQ5ratj1tkc4zF-78" value="" style="endArrow=none;html=1;rounded=0;" edge="1" parent="1" target="FpyPd4UQ5ratj1tkc4zF-20">
          <mxGeometry width="50" height="50" relative="1" as="geometry">
            <mxPoint x="-170" y="80" as="sourcePoint" />
            <mxPoint x="456" y="221" as="targetPoint" />
            <Array as="points" />
          </mxGeometry>
        </mxCell>
        <mxCell id="FpyPd4UQ5ratj1tkc4zF-80" value="" style="endArrow=none;html=1;rounded=0;" edge="1" parent="1" target="FpyPd4UQ5ratj1tkc4zF-24">
          <mxGeometry width="50" height="50" relative="1" as="geometry">
            <mxPoint x="-150" y="100" as="sourcePoint" />
            <mxPoint x="462" y="566" as="targetPoint" />
            <Array as="points" />
          </mxGeometry>
        </mxCell>
        <mxCell id="FpyPd4UQ5ratj1tkc4zF-81" value="" style="endArrow=none;html=1;rounded=0;" edge="1" parent="1" target="FpyPd4UQ5ratj1tkc4zF-30">
          <mxGeometry width="50" height="50" relative="1" as="geometry">
            <mxPoint x="-220" y="420" as="sourcePoint" />
            <mxPoint x="-170" y="370" as="targetPoint" />
          </mxGeometry>
        </mxCell>
        <mxCell id="FpyPd4UQ5ratj1tkc4zF-82" value="" style="endArrow=none;html=1;rounded=0;entryX=0;entryY=0.5;entryDx=0;entryDy=0;exitX=0.66;exitY=-0.067;exitDx=0;exitDy=0;exitPerimeter=0;" edge="1" parent="1" source="FpyPd4UQ5ratj1tkc4zF-70" target="FpyPd4UQ5ratj1tkc4zF-38">
          <mxGeometry width="50" height="50" relative="1" as="geometry">
            <mxPoint x="-210" y="430" as="sourcePoint" />
            <mxPoint x="-123" y="410" as="targetPoint" />
          </mxGeometry>
        </mxCell>
        <mxCell id="FpyPd4UQ5ratj1tkc4zF-84" value="" style="endArrow=none;html=1;rounded=0;entryX=0;entryY=0.5;entryDx=0;entryDy=0;" edge="1" parent="1" source="FpyPd4UQ5ratj1tkc4zF-70" target="FpyPd4UQ5ratj1tkc4zF-41">
          <mxGeometry width="50" height="50" relative="1" as="geometry">
            <mxPoint x="-200" y="440" as="sourcePoint" />
            <mxPoint x="-130" y="485" as="targetPoint" />
          </mxGeometry>
        </mxCell>
        <mxCell id="FpyPd4UQ5ratj1tkc4zF-92" value="" style="endArrow=none;html=1;rounded=0;entryX=0.495;entryY=0.386;entryDx=0;entryDy=0;entryPerimeter=0;" edge="1" parent="1" source="FpyPd4UQ5ratj1tkc4zF-12" target="FpyPd4UQ5ratj1tkc4zF-9">
          <mxGeometry width="50" height="50" relative="1" as="geometry">
            <mxPoint x="560" y="96.5" as="sourcePoint" />
            <mxPoint x="1270" y="140" as="targetPoint" />
            <Array as="points" />
          </mxGeometry>
        </mxCell>
        <mxCell id="FpyPd4UQ5ratj1tkc4zF-98" value="Actor" style="shape=umlActor;verticalLabelPosition=bottom;verticalAlign=top;html=1;" vertex="1" parent="1">
          <mxGeometry x="-120" y="270" width="30" height="60" as="geometry" />
        </mxCell>
        <mxCell id="FpyPd4UQ5ratj1tkc4zF-99" value="Actor" style="shape=umlActor;verticalLabelPosition=bottom;verticalAlign=top;html=1;" vertex="1" parent="1">
          <mxGeometry x="-630" y="110" width="120" height="190" as="geometry" />
        </mxCell>
        <mxCell id="FpyPd4UQ5ratj1tkc4zF-100" value="Customer" style="text;html=1;align=center;verticalAlign=middle;resizable=0;points=[];autosize=1;strokeColor=none;fillColor=none;" vertex="1" parent="1">
          <mxGeometry x="-650" y="195" width="80" height="30" as="geometry" />
        </mxCell>
      </root>
    </mxGraphModel>
  </diagram>
</mxfile>
